<?xml version="1.0" encoding="UTF-8"?>
<svg width="617px" height="501px" viewBox="0 0 617 501" version="1.1" xmlns="http://www.w3.org/2000/svg" xmlns:xlink="http://www.w3.org/1999/xlink">
    <!-- Generator: Sketch 60 (88103) - https://sketch.com -->
    <title>Group 2</title>
    <desc>Created with Sketch.</desc>
    <g id="Page-1" stroke="none" stroke-width="1" fill="none" fill-rule="evenodd">
        <g id="12.User-Journey-Map" transform="translate(-97.000000, -78.000000)">
            <g id="Group-2" transform="translate(96.500000, 78.000000)">
                <rect id="Rectangle" fill="#1A1A1A" x="1.5" y="0" width="56" height="22"></rect>
                <text id="STAGE" font-family="Merriweather" font-size="7" font-weight="normal" fill="#FFFFFF">
                    <tspan x="11.5" y="13">STAGE</tspan>
                </text>
                <text id="ACTIVITIES" transform="translate(16.000000, 91.500000) rotate(-90.000000) translate(-16.000000, -91.500000) " font-family="Merriweather-Bold, Merriweather" font-size="7" font-weight="bold" fill="#1A1A1A">
                    <tspan x="-4.98803711" y="94">ACTIVITIES</tspan>
                </text>
                <text id="Pet-Owner" transform="translate(45.000000, 65.000000) rotate(-90.000000) translate(-45.000000, -65.000000) " font-family="Poppins-Regular, Poppins" font-size="7" font-weight="normal" fill="#1A1A1A">
                    <tspan x="27.2585" y="67.5">Pet Owner</tspan>
                </text>
                <text id="Seeing-the-news-that" transform="translate(96.500000, 58.000000) rotate(-360.000000) translate(-96.500000, -58.000000) " font-family="Poppins-Regular, Poppins" font-size="7" font-weight="normal" fill="#2B2C2D">
                    <tspan x="62.5" y="47">Seeing the news </tspan>
                    <tspan x="62.5" y="56">that a pet died </tspan>
                    <tspan x="62.5" y="65">because of a </tspan>
                    <tspan x="62.5" y="74">house fire </tspan>
                </text>
                <text id="No-Activities-at-thi" transform="translate(96.500000, 113.000000) rotate(-360.000000) translate(-96.500000, -113.000000) " font-family="Poppins-Regular, Poppins" font-size="7" font-weight="normal" fill="#2B2C2D">
                    <tspan x="62.5" y="111">No Activities at this</tspan>
                    <tspan x="62.5" y="120">point</tspan>
                </text>
                <text id="Word-of-mouth,-socia" transform="translate(97.500000, 176.000000) rotate(-360.000000) translate(-97.500000, -176.000000) " font-family="Poppins-Regular, Poppins" font-size="7" font-weight="normal" fill="#2B2C2D">
                    <tspan x="70.62" y="174">Word of mouth,</tspan>
                    <tspan x="74.918" y="183">social media</tspan>
                </text>
                <text id="Social-media,-online" transform="translate(172.500000, 176.000000) rotate(-360.000000) translate(-172.500000, -176.000000) " font-family="Poppins-Regular, Poppins" font-size="7" font-weight="normal" fill="#2B2C2D">
                    <tspan x="148.9975" y="174">Social media, </tspan>
                    <tspan x="138.8615" y="183">online/ offline store</tspan>
                </text>
                <text id="Social-media,-online" transform="translate(579.500000, 180.500000) rotate(-360.000000) translate(-579.500000, -180.500000) " font-family="Poppins-Regular, Poppins" font-size="7" font-weight="normal" fill="#2B2C2D">
                    <tspan x="545.5" y="174">Social media, </tspan>
                    <tspan x="545.5" y="183">online/ offline store</tspan>
                    <tspan x="545.5" y="192">Word of mouth</tspan>
                </text>
                <text id="Smart-collar" transform="translate(172.500000, 236.500000) rotate(-360.000000) translate(-172.500000, -236.500000) " font-family="Poppins-Regular, Poppins" font-size="7" font-weight="normal" fill="#2B2C2D">
                    <tspan x="151.2025" y="239">Smart collar</tspan>
                </text>
                <text id="Danger-Detected" transform="translate(245.500000, 241.000000) rotate(-360.000000) translate(-245.500000, -241.000000) " font-family="Poppins-Regular, Poppins" font-size="7" font-weight="normal" fill="#212121">
                    <tspan x="232.578" y="239">Danger </tspan>
                    <tspan x="229.477" y="248">Detected</tspan>
                </text>
                <text id="Hide" transform="translate(393.500000, 236.500000) rotate(-360.000000) translate(-393.500000, -236.500000) " font-family="Poppins-Regular, Poppins" font-size="7" font-weight="normal" fill="#2B2C2D">
                    <tspan x="385.6845" y="239">Hide</tspan>
                </text>
                <text id="Send-an-alert-(by-co" transform="translate(319.000000, 241.000000) rotate(-360.000000) translate(-319.000000, -241.000000) " font-family="Poppins-Regular, Poppins" font-size="7" font-weight="normal" fill="#2B2C2D">
                    <tspan x="295.718" y="239">Send an alert</tspan>
                    <tspan x="300.793" y="248">(by collar)</tspan>
                </text>
                <text id="Saved" transform="translate(463.500000, 236.500000) rotate(-360.000000) translate(-463.500000, -236.500000) " font-family="Poppins-Regular, Poppins" font-size="7" font-weight="normal" fill="#2B2C2D">
                    <tspan x="452.58" y="239">Saved</tspan>
                </text>
                <text id="Mobile-app-Camera-Sm" transform="translate(246.000000, 189.500000) rotate(-360.000000) translate(-246.000000, -189.500000) " font-family="Poppins-Regular, Poppins" font-size="7" font-weight="normal" fill="#2B2C2D">
                    <tspan x="226.456" y="174">Mobile app</tspan>
                    <tspan x="231.4855" y="183">Camera </tspan>
                    <tspan x="224.7025" y="192">Smart collar</tspan>
                    <tspan x="246" y="201"></tspan>
                </text>
                <text id="Mobile-app-Camera-Sm" transform="translate(319.000000, 189.500000) rotate(-360.000000) translate(-319.000000, -189.500000) " font-family="Poppins-Regular, Poppins" font-size="7" font-weight="normal" fill="#2B2C2D">
                    <tspan x="299.456" y="174">Mobile app</tspan>
                    <tspan x="304.4855" y="183">Camera </tspan>
                    <tspan x="297.7025" y="192">Smart collar</tspan>
                    <tspan x="319" y="201"></tspan>
                </text>
                <text id="Mobile-app-SMS-Phone" transform="translate(392.000000, 189.500000) rotate(-360.000000) translate(-392.000000, -189.500000) " font-family="Poppins-Regular, Poppins" font-size="7" font-weight="normal" fill="#2B2C2D">
                    <tspan x="372.456" y="174">Mobile app</tspan>
                    <tspan x="384.8775" y="183">SMS</tspan>
                    <tspan x="373.9365" y="192">Phone call</tspan>
                    <tspan x="392" y="201"></tspan>
                </text>
                <text id="GPS-Camera" transform="translate(463.500000, 176.000000) rotate(-360.000000) translate(-463.500000, -176.000000) " font-family="Poppins-Regular, Poppins" font-size="7" font-weight="normal" fill="#2B2C2D">
                    <tspan x="456.696" y="174">GPS</tspan>
                    <tspan x="448.9855" y="183">Camera</tspan>
                </text>
                <text id="Smart-collar-detects" transform="translate(549.500000, 247.000000) rotate(-360.000000) translate(-549.500000, -247.000000) " font-family="Poppins-Regular, Poppins" font-size="7" font-weight="normal" fill="#2B2C2D">
                    <tspan x="501.5" y="236">Smart collar detects</tspan>
                    <tspan x="501.5" y="245">Health, Safety</tspan>
                    <tspan x="501.5" y="254">Real time</tspan>
                    <tspan x="501.5" y="263">Everyday</tspan>
                </text>
                <text id="Mobile-app-Camera-Ph" transform="translate(530.000000, 194.000000) rotate(-360.000000) translate(-530.000000, -194.000000) " font-family="Poppins-Regular, Poppins" font-size="7" font-weight="normal" fill="#2B2C2D">
                    <tspan x="501.5" y="174">Mobile app</tspan>
                    <tspan x="501.5" y="183">Camera </tspan>
                    <tspan x="501.5" y="192">Phone call</tspan>
                    <tspan x="501.5" y="201">SMS</tspan>
                    <tspan x="501.5" y="210"></tspan>
                </text>
                <text id="No-touchpoints-at-th" transform="translate(97.500000, 238.000000) rotate(-360.000000) translate(-97.500000, -238.000000) " font-family="Poppins-Regular, Poppins" font-size="7" font-weight="normal" fill="#2B2C2D">
                    <tspan x="70.9385" y="236">No touchpoints</tspan>
                    <tspan x="77.879" y="245">at this time</tspan>
                </text>
                <text id="Frustrated,-Curious" transform="translate(97.500000, 317.500000) rotate(-360.000000) translate(-97.500000, -317.500000) " font-family="Poppins-Regular, Poppins" font-size="7" font-weight="normal" fill="#2B2C2D">
                    <tspan x="63.5" y="320">Frustrated, Curious</tspan>
                </text>
                <text id="Happy" transform="translate(97.500000, 365.500000) rotate(-360.000000) translate(-97.500000, -365.500000) " font-family="Poppins-Regular, Poppins" font-size="7" font-weight="normal" fill="#2B2C2D">
                    <tspan x="86.013" y="368">Happy</tspan>
                </text>
                <text id="Pet-owner-always-wor" transform="translate(95.500000, 400.000000) rotate(-360.000000) translate(-95.500000, -400.000000) " font-family="Poppins-Regular, Poppins" font-size="7" font-weight="normal" fill="#2B2C2D">
                    <tspan x="65.0745" y="389">Pet owner always</tspan>
                    <tspan x="68.5255" y="398">worry about his</tspan>
                    <tspan x="70.7865" y="407">pet while he is </tspan>
                    <tspan x="65.5015" y="416">away from home</tspan>
                </text>
                <text id="Monitoring-his-pet-m" transform="translate(173.500000, 395.500000) rotate(-360.000000) translate(-173.500000, -395.500000) " font-family="Poppins-Regular, Poppins" font-size="7" font-weight="normal" fill="#2B2C2D">
                    <tspan x="148.9965" y="389">Monitoring his </tspan>
                    <tspan x="147.3445" y="398">pet makes him</tspan>
                    <tspan x="164.981" y="407">relief</tspan>
                </text>
                <text id="Get-alert-from-PetGa" transform="translate(244.500000, 404.500000) rotate(-360.000000) translate(-244.500000, -404.500000) " font-family="Poppins-Regular, Poppins" font-size="7" font-weight="normal" fill="#2B2C2D">
                    <tspan x="229.422" y="389">Get alert</tspan>
                    <tspan x="221.0325" y="398">from PetGard</tspan>
                    <tspan x="217.4345" y="407">monitor his pet,</tspan>
                    <tspan x="222.52" y="416">he sees high </tspan>
                    <tspan x="219.86" y="425">temp in home</tspan>
                </text>
                <text id="want-to-check-and-ma" transform="translate(317.500000, 395.500000) rotate(-360.000000) translate(-317.500000, -395.500000) " font-family="Poppins-Regular, Poppins" font-size="7" font-weight="normal" fill="#313233">
                    <tspan x="292.9055" y="389">want to check </tspan>
                    <tspan x="291.173" y="398">and make sure</tspan>
                    <tspan x="298.754" y="407">pet is okay</tspan>
                </text>
                <text id="Send-message-to-his" transform="translate(392.500000, 400.000000) rotate(-360.000000) translate(-392.500000, -400.000000) " font-family="Poppins-Regular, Poppins" font-size="7" font-weight="normal" fill="#38393B">
                    <tspan x="366.404" y="389">Send message </tspan>
                    <tspan x="364.0695" y="398">to his pet walker</tspan>
                    <tspan x="358.8125" y="407">to check on the pet</tspan>
                    <tspan x="368.6265" y="416">and save him</tspan>
                </text>
                <text id="Hear-and-watch-pet-w" transform="translate(461.500000, 395.500000) rotate(-360.000000) translate(-461.500000, -395.500000) " font-family="Poppins-Regular, Poppins" font-size="7" font-weight="normal" fill="#404143">
                    <tspan x="433.5245" y="389">Hear and watch</tspan>
                    <tspan x="443.3805" y="398">pet walker</tspan>
                    <tspan x="439.8105" y="407">save the pet</tspan>
                </text>
                <text id="PetGuard-allows-moni" transform="translate(550.500000, 409.000000) rotate(-360.000000) translate(-550.500000, -409.000000) " font-family="Poppins-Regular, Poppins" font-size="7" font-weight="normal" fill="#535457">
                    <tspan x="507.3695" y="389">PetGuard allows monitor </tspan>
                    <tspan x="507.947" y="398">my pet and also notified </tspan>
                    <tspan x="505.8855" y="407">me in case of emergency </tspan>
                    <tspan x="530.9175" y="416">in real time</tspan>
                    <tspan x="511.937" y="425">Relief even away from </tspan>
                    <tspan x="540.245" y="434">home</tspan>
                </text>
                <text id="painful-from-fire-he" transform="translate(392.500000, 467.000000) rotate(-360.000000) translate(-392.500000, -467.000000) " font-family="Poppins-Regular, Poppins" font-size="7" font-weight="normal" fill="#404143">
                    <tspan x="380.4145" y="465">painful</tspan>
                    <tspan x="368.791" y="474">from fire heat</tspan>
                </text>
                <text id="Relieved-see-pet-wal" transform="translate(463.500000, 466.000000) rotate(-360.000000) translate(-463.500000, -466.000000) " font-family="Poppins-Regular, Poppins" font-size="7" font-weight="normal" fill="#494A4C">
                    <tspan x="448.8105" y="464">Relieved </tspan>
                    <tspan x="438.279" y="473">see pet walker</tspan>
                </text>
                <text id="if-something-happen," transform="translate(542.500000, 467.500000) rotate(-360.000000) translate(-542.500000, -467.500000) " font-family="Poppins-Regular, Poppins" font-size="7" font-weight="normal" fill="#535457">
                    <tspan x="520.73" y="461">if something </tspan>
                    <tspan x="508.634" y="470">happen, owner can </tspan>
                    <tspan x="527.464" y="479">save me </tspan>
                </text>
                <text id="hiding-under-the-tab" transform="translate(320.500000, 468.000000) rotate(-360.000000) translate(-320.500000, -468.000000) " font-family="Poppins-Regular, Poppins" font-size="7" font-weight="normal" fill="#404143">
                    <tspan x="298.31" y="466">hiding under</tspan>
                    <tspan x="304.8445" y="475">the table</tspan>
                </text>
                <text id="Feels-hot,-started-n" transform="translate(248.500000, 467.000000) rotate(-360.000000) translate(-248.500000, -467.000000) " font-family="Poppins-Regular, Poppins" font-size="7" font-weight="normal" fill="#2B2C2D">
                    <tspan x="232.3265" y="465">Feels hot,</tspan>
                    <tspan x="220.997" y="474">started nervous</tspan>
                </text>
                <text id="Stay-at-home-waiting" transform="translate(97.500000, 466.500000) rotate(-360.000000) translate(-97.500000, -466.500000) " font-family="Poppins-Regular, Poppins" font-size="7" font-weight="normal" fill="#2B2C2D">
                    <tspan x="74.071" y="460">Stay at home</tspan>
                    <tspan x="84.662" y="469">waiting</tspan>
                    <tspan x="74.015" y="478">owner all day</tspan>
                </text>
                <text id="Interested" transform="translate(172.500000, 317.500000) rotate(-360.000000) translate(-172.500000, -317.500000) " font-family="Poppins-Regular, Poppins" font-size="7" font-weight="normal" fill="#2B2C2D">
                    <tspan x="154.8425" y="320">Interested</tspan>
                </text>
                <text id="Frightened" transform="translate(245.500000, 365.500000) rotate(-360.000000) translate(-245.500000, -365.500000) " font-family="Poppins-Regular, Poppins" font-size="7" font-weight="normal" fill="#2B2C2D">
                    <tspan x="226.7435" y="368">Frightened</tspan>
                </text>
                <text id="Happy" transform="translate(172.500000, 365.500000) rotate(-360.000000) translate(-172.500000, -365.500000) " font-family="Poppins-Regular, Poppins" font-size="7" font-weight="normal" fill="#2B2C2D">
                    <tspan x="161.013" y="368">Happy</tspan>
                </text>
                <text id="Afraid-or-Anxious" transform="translate(245.500000, 317.500000) rotate(-360.000000) translate(-245.500000, -317.500000) " font-family="Poppins-Regular, Poppins" font-size="7" font-weight="normal" fill="#2B2C2D">
                    <tspan x="216.233" y="320">Afraid or Anxious</tspan>
                </text>
                <text id="Scared/Painful" transform="translate(319.500000, 365.500000) rotate(-360.000000) translate(-319.500000, -365.500000) " font-family="Poppins-Regular, Poppins" font-size="7" font-weight="normal" fill="#2B2C2D">
                    <tspan x="293.7015" y="368">Scared/Painful</tspan>
                </text>
                <text id="Frustrated" transform="translate(319.500000, 317.500000) rotate(-360.000000) translate(-319.500000, -317.500000) " font-family="Poppins-Regular, Poppins" font-size="7" font-weight="normal" fill="#313233">
                    <tspan x="301.608" y="320">Frustrated</tspan>
                </text>
                <text id="Scared/Painful" transform="translate(392.500000, 365.500000) rotate(-360.000000) translate(-392.500000, -365.500000) " font-family="Poppins-Regular, Poppins" font-size="7" font-weight="normal" fill="#2B2C2D">
                    <tspan x="366.7015" y="368">Scared/Painful</tspan>
                </text>
                <text id="Worried" transform="translate(392.500000, 317.500000) rotate(-360.000000) translate(-392.500000, -317.500000) " font-family="Poppins-Regular, Poppins" font-size="7" font-weight="normal" fill="#2B2C2D">
                    <tspan x="378.836" y="320">Worried</tspan>
                </text>
                <text id="Relieved,-safe" transform="translate(463.500000, 365.500000) rotate(-360.000000) translate(-463.500000, -365.500000) " font-family="Poppins-Regular, Poppins" font-size="7" font-weight="normal" fill="#313233">
                    <tspan x="439.6685" y="368">Relieved, safe</tspan>
                </text>
                <text id="Relieved" transform="translate(463.500000, 317.500000) rotate(-360.000000) translate(-463.500000, -317.500000) " font-family="Poppins-Regular, Poppins" font-size="7" font-weight="normal" fill="#313233">
                    <tspan x="448.8105" y="320">Relieved</tspan>
                </text>
                <text id="Smart-collar-can-tra" transform="translate(544.000000, 354.000000) rotate(-360.000000) translate(-544.000000, -354.000000) " font-family="Poppins-Regular, Poppins" font-size="7" font-weight="normal" fill="#38393B">
                    <tspan x="501.5" y="352">Smart collar can track </tspan>
                    <tspan x="501.5" y="361">pet’s condition</tspan>
                </text>
                <text id="Pet-owner-can-check" transform="translate(535.500000, 303.500000) rotate(-360.000000) translate(-535.500000, -303.500000) " font-family="Poppins-Regular, Poppins" font-size="7" font-weight="normal" fill="#494A4C">
                    <tspan x="501.5" y="288">Pet owner can </tspan>
                    <tspan x="501.5" y="297">check their pet’s </tspan>
                    <tspan x="501.5" y="306">status in real-time,</tspan>
                    <tspan x="501.5" y="315">don’t need to </tspan>
                    <tspan x="501.5" y="324">worried or nervous</tspan>
                </text>
                <text id="Hear-from-friends,-s" transform="translate(173.500000, 49.000000) rotate(-360.000000) translate(-173.500000, -49.000000) " font-family="Poppins-Regular, Poppins" font-size="7" font-weight="normal" fill="#2B2C2D">
                    <tspan x="139.5" y="47">Hear from friends,</tspan>
                    <tspan x="139.5" y="56">see online Ads </tspan>
                </text>
                <text id="--Send-a-request-to" transform="translate(552.500000, 62.000000) rotate(-360.000000) translate(-552.500000, -62.000000) " font-family="Poppins-Regular, Poppins" font-size="7" font-weight="normal" fill="#2B2C2D">
                    <tspan x="509.5" y="51">- Send a request to </tspan>
                    <tspan x="509.5" y="60">rescue the pet</tspan>
                    <tspan x="509.5" y="69">- Send an invitation to </tspan>
                    <tspan x="509.5" y="78">contact</tspan>
                </text>
                <text id="--Send-alert-when-em" transform="translate(552.500000, 114.000000) rotate(-360.000000) translate(-552.500000, -114.000000) " font-family="Poppins-Regular, Poppins" font-size="7" font-weight="normal" fill="#2B2C2D">
                    <tspan x="509.5" y="112">- Send alert </tspan>
                    <tspan x="509.5" y="121">when emergency</tspan>
                </text>
                <text id="No-Activities-at-thi" transform="translate(173.500000, 113.000000) rotate(-360.000000) translate(-173.500000, -113.000000) " font-family="Poppins-Regular, Poppins" font-size="7" font-weight="normal" fill="#2B2C2D">
                    <tspan x="139.5" y="111">No Activities at this</tspan>
                    <tspan x="139.5" y="120">point</tspan>
                </text>
                <text id="Pet-owner-watches-in" transform="translate(352.500000, 62.500000) rotate(-360.000000) translate(-352.500000, -62.500000) " font-family="Poppins-Regular, Poppins" font-size="7" font-weight="normal" fill="#1A1A1A">
                    <tspan x="218.5" y="47">Pet owner watches indoor camera to monitor his dog.</tspan>
                    <tspan x="218.5" y="56">He is busy all day, he couldn’t watch a camera.</tspan>
                    <tspan x="218.5" y="65">After work he come home, found his dog is sick.</tspan>
                    <tspan x="218.5" y="74">He bring him to hospital if he arrives little late, his dog will be die.</tspan>
                    <tspan x="218.5" y="83">Pet owner frustrate and feel guilty.</tspan>
                </text>
                <text id="Pet-owner-watches-in" transform="translate(352.500000, 62.500000) rotate(-360.000000) translate(-352.500000, -62.500000) " font-family="Poppins-Regular, Poppins" font-size="7" font-weight="normal" fill="#2B2C2D">
                    <tspan x="218.5" y="47">Pet owner watches indoor camera to monitor his dog.</tspan>
                    <tspan x="218.5" y="56">He is busy all day, he couldn’t watch a camera.</tspan>
                    <tspan x="218.5" y="65">After work he come home, found his dog is sick.</tspan>
                    <tspan x="218.5" y="74">He bring him to hospital if he arrives little late, his dog will be die.</tspan>
                    <tspan x="218.5" y="83">Pet owner frustrate and feel guilty.</tspan>
                </text>
                <text id="Stays-at-home-all-da" transform="translate(348.500000, 122.000000) rotate(-360.000000) translate(-348.500000, -122.000000) " font-family="Poppins-Regular, Poppins" font-size="7" font-weight="normal" fill="#2B2C2D">
                    <tspan x="219.5" y="111">Stays at home all day.</tspan>
                    <tspan x="219.5" y="120">At noon, pet walker stop by to take a dog for a walk.</tspan>
                    <tspan x="219.5" y="129">Fell down from table and break a leg.</tspan>
                    <tspan x="219.5" y="138">Feels scary and painful.</tspan>
                </text>
                <text id="Pet" transform="translate(45.500000, 125.000000) rotate(-90.000000) translate(-45.500000, -125.000000) " font-family="Poppins-Regular, Poppins" font-size="7" font-weight="normal" fill="#1A1A1A">
                    <tspan x="40.0295" y="127.5">Pet</tspan>
                </text>
                <text id="TOUCHPOINTS" transform="translate(16.000000, 220.500000) rotate(-90.000000) translate(-16.000000, -220.500000) " font-family="Merriweather-Bold, Merriweather" font-size="7" font-weight="bold" fill="#1A1A1A">
                    <tspan x="-10.7233887" y="223">TOUCHPOINTS</tspan>
                </text>
                <text id="FEELINGS" transform="translate(15.500000, 324.500000) rotate(-90.000000) translate(-15.500000, -324.500000) " font-family="Merriweather-Bold, Merriweather" font-size="7" font-weight="bold" fill="#1A1A1A">
                    <tspan x="-2.74853516" y="327">FEELINGS</tspan>
                </text>
                <text id="THOUGHTS" transform="translate(14.000000, 436.500000) rotate(-90.000000) translate(-14.000000, -436.500000) " font-family="Merriweather-Bold, Merriweather" font-size="7" font-weight="bold" fill="#1A1A1A">
                    <tspan x="-6.84619141" y="439">THOUGHTS</tspan>
                </text>
                <polygon id="Rectangle" fill="#1A1A1A" points="60.5 0 132.211938 0 139.637652 10.5 132.211938 22 60.5 22"></polygon>
                <text id="AWARENESS" font-family="Merriweather" font-size="7" font-weight="normal" fill="#FFFFFF">
                    <tspan x="70.7302246" y="13">AWARENESS</tspan>
                </text>
                <polygon id="Rectangle" fill="#1A1A1A" points="135.84444 0 206.211938 1.37390099e-14 213.637652 10.5 206.211938 22 135.84444 22 143.379264 10.5"></polygon>
                <polygon id="Rectangle" fill="#1A1A1A" points="209.5 0 493.797859 0 501.223574 10.5 493.797859 22 209.5 22 217.034824 10.5"></polygon>
                <text id="DISCOVERY" font-family="Merriweather" font-size="7" font-weight="normal" fill="#FFFFFF">
                    <tspan x="152.726318" y="13">DISCOVERY</tspan>
                </text>
                <text id="EXPERIENCE" font-family="Merriweather" font-size="7" font-weight="normal" fill="#FFFFFF">
                    <tspan x="226.656006" y="13">EXPERIENCE</tspan>
                </text>
                <polygon id="Rectangle" fill="#1A1A1A" points="497.5 0 615.801434 0 615.801434 22 497.5 22 505.034824 10.5"></polygon>
                <text id="FOLLOW-UP" font-family="Merriweather" font-size="7" font-weight="normal" fill="#FFFFFF">
                    <tspan x="514.873535" y="13">FOLLOW UP</tspan>
                </text>
                <line x1="616" y1="151.5" x2="1.5" y2="151.75" id="Line-2" stroke="#2B2C2D" stroke-linecap="square"></line>
                <line x1="616" y1="93.5" x2="32.2500509" y2="93.6252034" id="Line-2" stroke="#888888" stroke-width="0.25" stroke-linecap="square" stroke-dasharray="2"></line>
                <text id="Pet-Owner" transform="translate(45.500000, 191.500000) rotate(-90.000000) translate(-45.500000, -191.500000) " font-family="Poppins-Regular, Poppins" font-size="7" font-weight="normal" fill="#1A1A1A">
                    <tspan x="27.7585" y="194">Pet Owner</tspan>
                </text>
                <text id="Pet" transform="translate(45.000000, 246.500000) rotate(-90.000000) translate(-45.000000, -246.500000) " font-family="Poppins-Regular, Poppins" font-size="7" font-weight="normal" fill="#1A1A1A">
                    <tspan x="39.5295" y="249">Pet</tspan>
                </text>
                <line x1="615.124924" y1="220.5625" x2="31.3749746" y2="220.687703" id="Line-2" stroke="#888888" stroke-width="0.25" stroke-linecap="square" stroke-dasharray="2"></line>
                <text id="Pet-Owner" transform="translate(45.500000, 309.500000) rotate(-90.000000) translate(-45.500000, -309.500000) " font-family="Poppins-Regular, Poppins" font-size="7" font-weight="normal" fill="#1A1A1A">
                    <tspan x="27.7585" y="312">Pet Owner</tspan>
                </text>
                <text id="Pet" transform="translate(46.000000, 355.500000) rotate(-90.000000) translate(-46.000000, -355.500000) " font-family="Poppins-Regular, Poppins" font-size="7" font-weight="normal" fill="#1A1A1A">
                    <tspan x="40.5295" y="358">Pet</tspan>
                </text>
                <line x1="616" y1="335.5" x2="32.2500509" y2="335.625203" id="Line-2" stroke="#888888" stroke-width="0.25" stroke-linecap="square" stroke-dasharray="2"></line>
                <text id="Pet-Owner" transform="translate(45.500000, 407.500000) rotate(-90.000000) translate(-45.500000, -407.500000) " font-family="Poppins-Regular, Poppins" font-size="7" font-weight="normal" fill="#1A1A1A">
                    <tspan x="27.7585" y="410">Pet Owner</tspan>
                </text>
                <text id="Pet" transform="translate(46.000000, 472.500000) rotate(-90.000000) translate(-46.000000, -472.500000) " font-family="Poppins-Regular, Poppins" font-size="7" font-weight="normal" fill="#1A1A1A">
                    <tspan x="40.5295" y="475">Pet</tspan>
                </text>
                <line x1="616.124924" y1="441.5625" x2="32.3749746" y2="441.687703" id="Line-2" stroke="#888888" stroke-width="0.25" stroke-linecap="square" stroke-dasharray="2"></line>
                <line x1="616.25" y1="272.375" x2="1.75" y2="272.625" id="Line-2" stroke="#888888" stroke-linecap="square"></line>
                <line x1="615.25" y1="375.375" x2="0.75" y2="375.625" id="Line-2" stroke="#888888" stroke-linecap="square"></line>
                <line x1="616" y1="499.5" x2="1.5" y2="499.75" id="Line-2" stroke="#888888" stroke-linecap="square"></line>
                <line x1="1" y1="499.5" x2="1.5" y2="35" id="Line-2" stroke="#2B2C2D" stroke-linecap="square"></line>
                <line x1="31.75" y1="499.5" x2="32.25" y2="35" id="Line-2" stroke="#2B2C2D" stroke-width="0.25" stroke-linecap="square"></line>
                <line x1="57.75" y1="499.5" x2="58.25" y2="35" id="Line-2" stroke="#888888" stroke-linecap="square"></line>
                <line x1="135.75" y1="499.5" x2="136.25" y2="35" id="Line-2" stroke="#888888" stroke-width="0.25" stroke-linecap="square" stroke-dasharray="3"></line>
                <line x1="208.75" y1="499.5" x2="209.25" y2="35" id="Line-2" stroke="#888888" stroke-width="0.25" stroke-linecap="square" stroke-dasharray="3"></line>
                <line x1="282.75" y1="371.25" x2="282.75" y2="151.25" id="Line-2" stroke="#888888" stroke-width="0.25" stroke-linecap="square" stroke-dasharray="3"></line>
                <line x1="497.75" y1="499.5" x2="498.25" y2="35" id="Line-2" stroke="#888888" stroke-width="0.25" stroke-linecap="square" stroke-dasharray="3"></line>
                <line x1="615.75" y1="499.5" x2="616.25" y2="35" id="Line-2" stroke="#2B2C2D" stroke-linecap="square"></line>
                <g id="noun_emoticon_2904909" transform="translate(89.500000, 289.000000)" fill="#000000">
                    <g id="Group">
                        <path d="M5.68328446,5.18475073 C6.38123167,5.18475073 6.97947214,5.73313783 6.97947214,6.43108504 C6.97947214,7.17888563 6.38123167,7.72727273 5.68328446,7.72727273 C4.98533724,7.72727273 4.38709677,7.17888563 4.38709677,6.43108504 C4.38709677,5.73313783 4.98533724,5.18475073 5.68328446,5.18475073 Z" id="Path"></path>
                        <path d="M11.3167155,5.18475073 C12.0146628,5.18475073 12.6129032,5.73313783 12.6129032,6.43108504 C12.6129032,7.17888563 12.0146628,7.72727273 11.3167155,7.72727273 C10.6187683,7.72727273 10.0205279,7.17888563 10.0205279,6.43108504 C10.0205279,5.73313783 10.6187683,5.18475073 11.3167155,5.18475073 Z" id="Path"></path>
                        <path d="M6.53079179,12.4633431 C6.18181818,12.4633431 5.93255132,12.1642229 5.93255132,11.8152493 C5.93255132,11.4662757 6.18181818,11.2170088 6.53079179,11.2170088 L10.4692082,11.2170088 C10.8181818,11.2170088 11.0674487,11.4662757 11.0674487,11.8152493 C11.0674487,12.1642229 10.8181818,12.4633431 10.4692082,12.4633431 L6.53079179,12.4633431 Z" id="Path" fill-rule="nonzero"></path>
                        <path d="M8.47507331,0 C13.2111437,0 17,3.7888563 17,8.47507331 C17,13.2111437 13.2111437,17 8.47507331,17 C3.7888563,17 0,13.2111437 0,8.47507331 C0,3.7888563 3.7888563,0 8.47507331,0 Z M8.47507331,1.24633431 C4.48680352,1.24633431 1.24633431,4.48680352 1.24633431,8.47507331 C1.24633431,12.5131965 4.48680352,15.7536657 8.47507331,15.7536657 C12.5131965,15.7536657 15.7536657,12.5131965 15.7536657,8.47507331 C15.7536657,4.48680352 12.5131965,1.24633431 8.47507331,1.24633431 Z" id="Shape" fill-rule="nonzero"></path>
                    </g>
                </g>
                <g id="noun_emoticon_2904909" transform="translate(164.500000, 289.000000)" fill="#000000">
                    <g id="Group">
                        <path d="M5.68328446,5.18475073 C6.38123167,5.18475073 6.97947214,5.73313783 6.97947214,6.43108504 C6.97947214,7.17888563 6.38123167,7.72727273 5.68328446,7.72727273 C4.98533724,7.72727273 4.38709677,7.17888563 4.38709677,6.43108504 C4.38709677,5.73313783 4.98533724,5.18475073 5.68328446,5.18475073 Z" id="Path"></path>
                        <path d="M11.3167155,5.18475073 C12.0146628,5.18475073 12.6129032,5.73313783 12.6129032,6.43108504 C12.6129032,7.17888563 12.0146628,7.72727273 11.3167155,7.72727273 C10.6187683,7.72727273 10.0205279,7.17888563 10.0205279,6.43108504 C10.0205279,5.73313783 10.6187683,5.18475073 11.3167155,5.18475073 Z" id="Path"></path>
                        <path d="M6.53079179,12.4633431 C6.18181818,12.4633431 5.93255132,12.1642229 5.93255132,11.8152493 C5.93255132,11.4662757 6.18181818,11.2170088 6.53079179,11.2170088 L10.4692082,11.2170088 C10.8181818,11.2170088 11.0674487,11.4662757 11.0674487,11.8152493 C11.0674487,12.1642229 10.8181818,12.4633431 10.4692082,12.4633431 L6.53079179,12.4633431 Z" id="Path" fill-rule="nonzero"></path>
                        <path d="M8.47507331,0 C13.2111437,0 17,3.7888563 17,8.47507331 C17,13.2111437 13.2111437,17 8.47507331,17 C3.7888563,17 0,13.2111437 0,8.47507331 C0,3.7888563 3.7888563,0 8.47507331,0 Z M8.47507331,1.24633431 C4.48680352,1.24633431 1.24633431,4.48680352 1.24633431,8.47507331 C1.24633431,12.5131965 4.48680352,15.7536657 8.47507331,15.7536657 C12.5131965,15.7536657 15.7536657,12.5131965 15.7536657,8.47507331 C15.7536657,4.48680352 12.5131965,1.24633431 8.47507331,1.24633431 Z" id="Shape" fill-rule="nonzero"></path>
                    </g>
                </g>
                <g id="noun_emoticon_2904920-(1)" transform="translate(89.500000, 341.000000)" fill="#000000">
                    <g id="Group">
                        <path d="M8.47384615,0 C13.1815385,0 17,3.81846154 17,8.47384615 C17,13.1815385 13.1815385,17 8.47384615,17 C3.81846154,17 0,13.1815385 0,8.47384615 C0,3.81846154 3.81846154,0 8.47384615,0 Z M8.47384615,1.04615385 C4.39384615,1.04615385 1.04615385,4.39384615 1.04615385,8.47384615 C1.04615385,12.6061538 4.39384615,15.9538462 8.47384615,15.9538462 C12.6061538,15.9538462 15.9538462,12.6061538 15.9538462,8.47384615 C15.9538462,4.39384615 12.6061538,1.04615385 8.47384615,1.04615385 Z" id="Shape" fill-rule="nonzero"></path>
                        <path d="M10.6184615,10.2523077 L6.38153846,10.2523077 C6.64307692,11.2461538 7.48,11.9261538 8.47384615,11.9261538 C9.52,11.9261538 10.3569231,11.2461538 10.6184615,10.2523077 Z M5.80615385,9.20615385 L11.1938462,9.20615385 C11.4553846,9.20615385 11.7169231,9.46769231 11.7169231,9.72923077 C11.7169231,11.5076923 10.2523077,12.9723077 8.47384615,12.9723077 C6.74769231,12.9723077 5.28307692,11.5076923 5.28307692,9.78153846 C5.28307692,9.46769231 5.49230769,9.20615385 5.80615385,9.20615385 Z" id="Shape" fill-rule="nonzero"></path>
                        <path d="M5.54461538,4.55076923 C6.27692308,4.55076923 6.90461538,5.12615385 6.90461538,5.91076923 C6.90461538,6.64307692 6.27692308,7.27076923 5.54461538,7.27076923 C4.81230769,7.27076923 4.18461538,6.64307692 4.18461538,5.91076923 C4.18461538,5.12615385 4.81230769,4.55076923 5.54461538,4.55076923 Z" id="Path"></path>
                        <path d="M11.4553846,4.55076923 C12.1876923,4.55076923 12.8153846,5.12615385 12.8153846,5.91076923 C12.8153846,6.64307692 12.1876923,7.27076923 11.4553846,7.27076923 C10.7230769,7.27076923 10.0953846,6.64307692 10.0953846,5.91076923 C10.0953846,5.12615385 10.7230769,4.55076923 11.4553846,4.55076923 Z" id="Path"></path>
                    </g>
                </g>
                <g id="noun_emoticon_2904920-(1)" transform="translate(164.500000, 341.000000)" fill="#000000">
                    <g id="Group">
                        <path d="M8.47384615,0 C13.1815385,0 17,3.81846154 17,8.47384615 C17,13.1815385 13.1815385,17 8.47384615,17 C3.81846154,17 0,13.1815385 0,8.47384615 C0,3.81846154 3.81846154,0 8.47384615,0 Z M8.47384615,1.04615385 C4.39384615,1.04615385 1.04615385,4.39384615 1.04615385,8.47384615 C1.04615385,12.6061538 4.39384615,15.9538462 8.47384615,15.9538462 C12.6061538,15.9538462 15.9538462,12.6061538 15.9538462,8.47384615 C15.9538462,4.39384615 12.6061538,1.04615385 8.47384615,1.04615385 Z" id="Shape" fill-rule="nonzero"></path>
                        <path d="M10.6184615,10.2523077 L6.38153846,10.2523077 C6.64307692,11.2461538 7.48,11.9261538 8.47384615,11.9261538 C9.52,11.9261538 10.3569231,11.2461538 10.6184615,10.2523077 Z M5.80615385,9.20615385 L11.1938462,9.20615385 C11.4553846,9.20615385 11.7169231,9.46769231 11.7169231,9.72923077 C11.7169231,11.5076923 10.2523077,12.9723077 8.47384615,12.9723077 C6.74769231,12.9723077 5.28307692,11.5076923 5.28307692,9.78153846 C5.28307692,9.46769231 5.49230769,9.20615385 5.80615385,9.20615385 Z" id="Shape" fill-rule="nonzero"></path>
                        <path d="M5.54461538,4.55076923 C6.27692308,4.55076923 6.90461538,5.12615385 6.90461538,5.91076923 C6.90461538,6.64307692 6.27692308,7.27076923 5.54461538,7.27076923 C4.81230769,7.27076923 4.18461538,6.64307692 4.18461538,5.91076923 C4.18461538,5.12615385 4.81230769,4.55076923 5.54461538,4.55076923 Z" id="Path"></path>
                        <path d="M11.4553846,4.55076923 C12.1876923,4.55076923 12.8153846,5.12615385 12.8153846,5.91076923 C12.8153846,6.64307692 12.1876923,7.27076923 11.4553846,7.27076923 C10.7230769,7.27076923 10.0953846,6.64307692 10.0953846,5.91076923 C10.0953846,5.12615385 10.7230769,4.55076923 11.4553846,4.55076923 Z" id="Path"></path>
                    </g>
                </g>
                <g id="noun_emoticon_2904920-(1)" transform="translate(454.500000, 341.000000)" fill="#000000">
                    <g id="Group">
                        <path d="M8.47384615,0 C13.1815385,0 17,3.81846154 17,8.47384615 C17,13.1815385 13.1815385,17 8.47384615,17 C3.81846154,17 0,13.1815385 0,8.47384615 C0,3.81846154 3.81846154,0 8.47384615,0 Z M8.47384615,1.04615385 C4.39384615,1.04615385 1.04615385,4.39384615 1.04615385,8.47384615 C1.04615385,12.6061538 4.39384615,15.9538462 8.47384615,15.9538462 C12.6061538,15.9538462 15.9538462,12.6061538 15.9538462,8.47384615 C15.9538462,4.39384615 12.6061538,1.04615385 8.47384615,1.04615385 Z" id="Shape" fill-rule="nonzero"></path>
                        <path d="M10.6184615,10.2523077 L6.38153846,10.2523077 C6.64307692,11.2461538 7.48,11.9261538 8.47384615,11.9261538 C9.52,11.9261538 10.3569231,11.2461538 10.6184615,10.2523077 Z M5.80615385,9.20615385 L11.1938462,9.20615385 C11.4553846,9.20615385 11.7169231,9.46769231 11.7169231,9.72923077 C11.7169231,11.5076923 10.2523077,12.9723077 8.47384615,12.9723077 C6.74769231,12.9723077 5.28307692,11.5076923 5.28307692,9.78153846 C5.28307692,9.46769231 5.49230769,9.20615385 5.80615385,9.20615385 Z" id="Shape" fill-rule="nonzero"></path>
                        <path d="M5.54461538,4.55076923 C6.27692308,4.55076923 6.90461538,5.12615385 6.90461538,5.91076923 C6.90461538,6.64307692 6.27692308,7.27076923 5.54461538,7.27076923 C4.81230769,7.27076923 4.18461538,6.64307692 4.18461538,5.91076923 C4.18461538,5.12615385 4.81230769,4.55076923 5.54461538,4.55076923 Z" id="Path"></path>
                        <path d="M11.4553846,4.55076923 C12.1876923,4.55076923 12.8153846,5.12615385 12.8153846,5.91076923 C12.8153846,6.64307692 12.1876923,7.27076923 11.4553846,7.27076923 C10.7230769,7.27076923 10.0953846,6.64307692 10.0953846,5.91076923 C10.0953846,5.12615385 10.7230769,4.55076923 11.4553846,4.55076923 Z" id="Path"></path>
                    </g>
                </g>
                <g id="noun_emoticon_2904920-(1)" transform="translate(454.500000, 289.000000)" fill="#000000">
                    <g id="Group">
                        <path d="M8.47384615,0 C13.1815385,0 17,3.81846154 17,8.47384615 C17,13.1815385 13.1815385,17 8.47384615,17 C3.81846154,17 0,13.1815385 0,8.47384615 C0,3.81846154 3.81846154,0 8.47384615,0 Z M8.47384615,1.04615385 C4.39384615,1.04615385 1.04615385,4.39384615 1.04615385,8.47384615 C1.04615385,12.6061538 4.39384615,15.9538462 8.47384615,15.9538462 C12.6061538,15.9538462 15.9538462,12.6061538 15.9538462,8.47384615 C15.9538462,4.39384615 12.6061538,1.04615385 8.47384615,1.04615385 Z" id="Shape" fill-rule="nonzero"></path>
                        <path d="M10.6184615,10.2523077 L6.38153846,10.2523077 C6.64307692,11.2461538 7.48,11.9261538 8.47384615,11.9261538 C9.52,11.9261538 10.3569231,11.2461538 10.6184615,10.2523077 Z M5.80615385,9.20615385 L11.1938462,9.20615385 C11.4553846,9.20615385 11.7169231,9.46769231 11.7169231,9.72923077 C11.7169231,11.5076923 10.2523077,12.9723077 8.47384615,12.9723077 C6.74769231,12.9723077 5.28307692,11.5076923 5.28307692,9.78153846 C5.28307692,9.46769231 5.49230769,9.20615385 5.80615385,9.20615385 Z" id="Shape" fill-rule="nonzero"></path>
                        <path d="M5.54461538,4.55076923 C6.27692308,4.55076923 6.90461538,5.12615385 6.90461538,5.91076923 C6.90461538,6.64307692 6.27692308,7.27076923 5.54461538,7.27076923 C4.81230769,7.27076923 4.18461538,6.64307692 4.18461538,5.91076923 C4.18461538,5.12615385 4.81230769,4.55076923 5.54461538,4.55076923 Z" id="Path"></path>
                        <path d="M11.4553846,4.55076923 C12.1876923,4.55076923 12.8153846,5.12615385 12.8153846,5.91076923 C12.8153846,6.64307692 12.1876923,7.27076923 11.4553846,7.27076923 C10.7230769,7.27076923 10.0953846,6.64307692 10.0953846,5.91076923 C10.0953846,5.12615385 10.7230769,4.55076923 11.4553846,4.55076923 Z" id="Path"></path>
                    </g>
                </g>
                <g id="noun_emoticon_2904939" transform="translate(237.500000, 289.000000)" fill="#000000" fill-rule="nonzero">
                    <g id="Group">
                        <path d="M8.52647975,0 C13.1869159,0 17,3.81308411 17,8.52647975 C17,13.1869159 13.1869159,17 8.52647975,17 C3.81308411,17 0,13.1869159 0,8.52647975 C0,3.81308411 3.81308411,0 8.52647975,0 Z M8.52647975,1.05919003 C4.39563863,1.05919003 1.05919003,4.39563863 1.05919003,8.52647975 C1.05919003,12.6043614 4.39563863,15.94081 8.52647975,15.94081 C12.6043614,15.94081 15.94081,12.6043614 15.94081,8.52647975 C15.94081,4.39563863 12.6043614,1.05919003 8.52647975,1.05919003 Z" id="Shape"></path>
                        <path d="M11.7570093,4.87227414 C12.0218069,4.71339564 12.3395639,4.76635514 12.4984424,4.97819315 C12.7102804,5.19003115 12.6573209,5.56074766 12.3925234,5.71962617 L11.4922118,6.40809969 L12.3925234,7.09657321 C12.6573209,7.25545171 12.7102804,7.57320872 12.4984424,7.83800623 C12.3395639,8.04984424 12.0218069,8.10280374 11.7570093,7.89096573 L10.3271028,6.8317757 C10.0623053,6.61993769 10.0093458,6.19626168 10.3271028,5.98442368 L11.7570093,4.87227414 Z" id="Path"></path>
                        <path d="M4.60747664,5.71962617 C4.39563863,5.56074766 4.34267913,5.19003115 4.50155763,4.97819315 C4.66043614,4.76635514 5.03115265,4.71339564 5.24299065,4.87227414 L6.7258567,5.98442368 C6.99065421,6.19626168 6.99065421,6.61993769 6.7258567,6.8317757 L5.24299065,7.89096573 C5.03115265,8.10280374 4.66043614,8.04984424 4.50155763,7.83800623 C4.34267913,7.57320872 4.39563863,7.25545171 4.60747664,7.09657321 L5.50778816,6.40809969 L4.60747664,5.71962617 Z" id="Path"></path>
                        <path d="M6.46105919,12.0218069 C6.30218069,12.2336449 5.93146417,12.3395639 5.71962617,12.1806854 C5.45482866,12.0218069 5.40186916,11.6510903 5.56074766,11.4392523 C6.24922118,10.4330218 7.36137072,9.79750779 8.57943925,9.79750779 C9.74454829,9.79750779 10.9096573,10.4330218 11.5451713,11.4392523 C11.7040498,11.6510903 11.6510903,12.0218069 11.3862928,12.1806854 C11.1744548,12.3395639 10.8037383,12.2336449 10.6448598,12.0218069 C10.2211838,11.2803738 9.42679128,10.8566978 8.57943925,10.8566978 C7.67912773,10.8566978 6.8847352,11.2803738 6.46105919,12.0218069 Z" id="Path"></path>
                    </g>
                </g>
                <g id="noun_emoticon_2904939" transform="translate(237.500000, 341.000000)" fill="#000000" fill-rule="nonzero">
                    <g id="Group">
                        <path d="M8.52647975,0 C13.1869159,0 17,3.81308411 17,8.52647975 C17,13.1869159 13.1869159,17 8.52647975,17 C3.81308411,17 0,13.1869159 0,8.52647975 C0,3.81308411 3.81308411,0 8.52647975,0 Z M8.52647975,1.05919003 C4.39563863,1.05919003 1.05919003,4.39563863 1.05919003,8.52647975 C1.05919003,12.6043614 4.39563863,15.94081 8.52647975,15.94081 C12.6043614,15.94081 15.94081,12.6043614 15.94081,8.52647975 C15.94081,4.39563863 12.6043614,1.05919003 8.52647975,1.05919003 Z" id="Shape"></path>
                        <path d="M11.7570093,4.87227414 C12.0218069,4.71339564 12.3395639,4.76635514 12.4984424,4.97819315 C12.7102804,5.19003115 12.6573209,5.56074766 12.3925234,5.71962617 L11.4922118,6.40809969 L12.3925234,7.09657321 C12.6573209,7.25545171 12.7102804,7.57320872 12.4984424,7.83800623 C12.3395639,8.04984424 12.0218069,8.10280374 11.7570093,7.89096573 L10.3271028,6.8317757 C10.0623053,6.61993769 10.0093458,6.19626168 10.3271028,5.98442368 L11.7570093,4.87227414 Z" id="Path"></path>
                        <path d="M4.60747664,5.71962617 C4.39563863,5.56074766 4.34267913,5.19003115 4.50155763,4.97819315 C4.66043614,4.76635514 5.03115265,4.71339564 5.24299065,4.87227414 L6.7258567,5.98442368 C6.99065421,6.19626168 6.99065421,6.61993769 6.7258567,6.8317757 L5.24299065,7.89096573 C5.03115265,8.10280374 4.66043614,8.04984424 4.50155763,7.83800623 C4.34267913,7.57320872 4.39563863,7.25545171 4.60747664,7.09657321 L5.50778816,6.40809969 L4.60747664,5.71962617 Z" id="Path"></path>
                        <path d="M6.46105919,12.0218069 C6.30218069,12.2336449 5.93146417,12.3395639 5.71962617,12.1806854 C5.45482866,12.0218069 5.40186916,11.6510903 5.56074766,11.4392523 C6.24922118,10.4330218 7.36137072,9.79750779 8.57943925,9.79750779 C9.74454829,9.79750779 10.9096573,10.4330218 11.5451713,11.4392523 C11.7040498,11.6510903 11.6510903,12.0218069 11.3862928,12.1806854 C11.1744548,12.3395639 10.8037383,12.2336449 10.6448598,12.0218069 C10.2211838,11.2803738 9.42679128,10.8566978 8.57943925,10.8566978 C7.67912773,10.8566978 6.8847352,11.2803738 6.46105919,12.0218069 Z" id="Path"></path>
                    </g>
                </g>
                <g id="noun_emoticon_2904939" transform="translate(310.500000, 341.000000)" fill="#000000" fill-rule="nonzero">
                    <g id="Group">
                        <path d="M8.52647975,0 C13.1869159,0 17,3.81308411 17,8.52647975 C17,13.1869159 13.1869159,17 8.52647975,17 C3.81308411,17 0,13.1869159 0,8.52647975 C0,3.81308411 3.81308411,0 8.52647975,0 Z M8.52647975,1.05919003 C4.39563863,1.05919003 1.05919003,4.39563863 1.05919003,8.52647975 C1.05919003,12.6043614 4.39563863,15.94081 8.52647975,15.94081 C12.6043614,15.94081 15.94081,12.6043614 15.94081,8.52647975 C15.94081,4.39563863 12.6043614,1.05919003 8.52647975,1.05919003 Z" id="Shape"></path>
                        <path d="M11.7570093,4.87227414 C12.0218069,4.71339564 12.3395639,4.76635514 12.4984424,4.97819315 C12.7102804,5.19003115 12.6573209,5.56074766 12.3925234,5.71962617 L11.4922118,6.40809969 L12.3925234,7.09657321 C12.6573209,7.25545171 12.7102804,7.57320872 12.4984424,7.83800623 C12.3395639,8.04984424 12.0218069,8.10280374 11.7570093,7.89096573 L10.3271028,6.8317757 C10.0623053,6.61993769 10.0093458,6.19626168 10.3271028,5.98442368 L11.7570093,4.87227414 Z" id="Path"></path>
                        <path d="M4.60747664,5.71962617 C4.39563863,5.56074766 4.34267913,5.19003115 4.50155763,4.97819315 C4.66043614,4.76635514 5.03115265,4.71339564 5.24299065,4.87227414 L6.7258567,5.98442368 C6.99065421,6.19626168 6.99065421,6.61993769 6.7258567,6.8317757 L5.24299065,7.89096573 C5.03115265,8.10280374 4.66043614,8.04984424 4.50155763,7.83800623 C4.34267913,7.57320872 4.39563863,7.25545171 4.60747664,7.09657321 L5.50778816,6.40809969 L4.60747664,5.71962617 Z" id="Path"></path>
                        <path d="M6.46105919,12.0218069 C6.30218069,12.2336449 5.93146417,12.3395639 5.71962617,12.1806854 C5.45482866,12.0218069 5.40186916,11.6510903 5.56074766,11.4392523 C6.24922118,10.4330218 7.36137072,9.79750779 8.57943925,9.79750779 C9.74454829,9.79750779 10.9096573,10.4330218 11.5451713,11.4392523 C11.7040498,11.6510903 11.6510903,12.0218069 11.3862928,12.1806854 C11.1744548,12.3395639 10.8037383,12.2336449 10.6448598,12.0218069 C10.2211838,11.2803738 9.42679128,10.8566978 8.57943925,10.8566978 C7.67912773,10.8566978 6.8847352,11.2803738 6.46105919,12.0218069 Z" id="Path"></path>
                    </g>
                </g>
                <g id="noun_emoticon_2904939" transform="translate(383.500000, 341.000000)" fill="#000000" fill-rule="nonzero">
                    <g id="Group">
                        <path d="M8.52647975,0 C13.1869159,0 17,3.81308411 17,8.52647975 C17,13.1869159 13.1869159,17 8.52647975,17 C3.81308411,17 0,13.1869159 0,8.52647975 C0,3.81308411 3.81308411,0 8.52647975,0 Z M8.52647975,1.05919003 C4.39563863,1.05919003 1.05919003,4.39563863 1.05919003,8.52647975 C1.05919003,12.6043614 4.39563863,15.94081 8.52647975,15.94081 C12.6043614,15.94081 15.94081,12.6043614 15.94081,8.52647975 C15.94081,4.39563863 12.6043614,1.05919003 8.52647975,1.05919003 Z" id="Shape"></path>
                        <path d="M11.7570093,4.87227414 C12.0218069,4.71339564 12.3395639,4.76635514 12.4984424,4.97819315 C12.7102804,5.19003115 12.6573209,5.56074766 12.3925234,5.71962617 L11.4922118,6.40809969 L12.3925234,7.09657321 C12.6573209,7.25545171 12.7102804,7.57320872 12.4984424,7.83800623 C12.3395639,8.04984424 12.0218069,8.10280374 11.7570093,7.89096573 L10.3271028,6.8317757 C10.0623053,6.61993769 10.0093458,6.19626168 10.3271028,5.98442368 L11.7570093,4.87227414 Z" id="Path"></path>
                        <path d="M4.60747664,5.71962617 C4.39563863,5.56074766 4.34267913,5.19003115 4.50155763,4.97819315 C4.66043614,4.76635514 5.03115265,4.71339564 5.24299065,4.87227414 L6.7258567,5.98442368 C6.99065421,6.19626168 6.99065421,6.61993769 6.7258567,6.8317757 L5.24299065,7.89096573 C5.03115265,8.10280374 4.66043614,8.04984424 4.50155763,7.83800623 C4.34267913,7.57320872 4.39563863,7.25545171 4.60747664,7.09657321 L5.50778816,6.40809969 L4.60747664,5.71962617 Z" id="Path"></path>
                        <path d="M6.46105919,12.0218069 C6.30218069,12.2336449 5.93146417,12.3395639 5.71962617,12.1806854 C5.45482866,12.0218069 5.40186916,11.6510903 5.56074766,11.4392523 C6.24922118,10.4330218 7.36137072,9.79750779 8.57943925,9.79750779 C9.74454829,9.79750779 10.9096573,10.4330218 11.5451713,11.4392523 C11.7040498,11.6510903 11.6510903,12.0218069 11.3862928,12.1806854 C11.1744548,12.3395639 10.8037383,12.2336449 10.6448598,12.0218069 C10.2211838,11.2803738 9.42679128,10.8566978 8.57943925,10.8566978 C7.67912773,10.8566978 6.8847352,11.2803738 6.46105919,12.0218069 Z" id="Path"></path>
                    </g>
                </g>
                <g id="noun_emoticon_2117690" transform="translate(310.500000, 288.000000)" fill="#000000">
                    <path d="M8.97087379,0 C13.9805825,0 18,4.01941748 18,8.97087379 C18,13.9805825 13.9805825,18 8.97087379,18 C4.01941748,18 0,13.9805825 0,8.97087379 C0,4.01941748 4.01941748,0 8.97087379,0 Z M7.80582524,14.0970874 C7.45631068,14.2718447 7.16504854,13.8058252 7.45631068,13.5728155 C8.38834951,13.0485437 9.55339806,13.0485437 10.4854369,13.5728155 C10.8349515,13.8058252 10.5436893,14.2718447 10.1941748,14.0970874 C9.4368932,13.631068 8.50485437,13.631068 7.80582524,14.0970874 Z M11.3592233,6.75728155 C11.0679612,6.58252427 10.6019417,6.99029126 10.9514563,7.2815534 C12,8.09708738 13.3398058,8.38834951 14.7378641,8.38834951 C15.2038835,8.38834951 15.2621359,8.15533981 14.7378641,8.15533981 C13.1650485,7.98058252 12.5242718,7.63106796 11.3592233,6.75728155 Z M14.6796117,10.0194175 C14.9126214,9.49514563 14.5048544,9.37864078 14.2718447,9.84466019 C13.7475728,10.8349515 12,10.8349515 11.4757282,9.84466019 C11.2427184,9.4368932 10.8349515,9.4368932 11.1262136,10.0194175 C11.7669903,11.5339806 13.9223301,11.5339806 14.6796117,10.0194175 Z M6.58252427,6.75728155 C6.93203883,6.58252427 7.33980583,6.99029126 6.99029126,7.2815534 C6,8.09708738 4.60194175,8.38834951 3.26213592,8.38834951 C2.7961165,8.38834951 2.67961165,8.15533981 3.26213592,8.15533981 C4.83495146,7.98058252 5.47572816,7.63106796 6.58252427,6.75728155 Z M3.32038835,10.0194175 C3.08737864,9.49514563 3.4368932,9.37864078 3.66990291,9.84466019 C4.19417476,10.8349515 6,10.8349515 6.52427184,9.84466019 C6.69902913,9.4368932 7.10679612,9.4368932 6.87378641,10.0194175 C6.23300971,11.5339806 4.01941748,11.5339806 3.32038835,10.0194175 Z M8.97087379,1.04854369 C13.3980583,1.04854369 16.9514563,4.60194175 16.9514563,8.97087379 C16.9514563,13.3980583 13.3980583,16.9514563 8.97087379,16.9514563 C4.60194175,16.9514563 1.04854369,13.3980583 1.04854369,8.97087379 C1.04854369,4.60194175 4.60194175,1.04854369 8.97087379,1.04854369 Z" id="Shape"></path>
                </g>
                <g id="noun_emoticon_2117690" transform="translate(383.500000, 288.000000)" fill="#000000">
                    <path d="M8.97087379,0 C13.9805825,0 18,4.01941748 18,8.97087379 C18,13.9805825 13.9805825,18 8.97087379,18 C4.01941748,18 0,13.9805825 0,8.97087379 C0,4.01941748 4.01941748,0 8.97087379,0 Z M7.80582524,14.0970874 C7.45631068,14.2718447 7.16504854,13.8058252 7.45631068,13.5728155 C8.38834951,13.0485437 9.55339806,13.0485437 10.4854369,13.5728155 C10.8349515,13.8058252 10.5436893,14.2718447 10.1941748,14.0970874 C9.4368932,13.631068 8.50485437,13.631068 7.80582524,14.0970874 Z M11.3592233,6.75728155 C11.0679612,6.58252427 10.6019417,6.99029126 10.9514563,7.2815534 C12,8.09708738 13.3398058,8.38834951 14.7378641,8.38834951 C15.2038835,8.38834951 15.2621359,8.15533981 14.7378641,8.15533981 C13.1650485,7.98058252 12.5242718,7.63106796 11.3592233,6.75728155 Z M14.6796117,10.0194175 C14.9126214,9.49514563 14.5048544,9.37864078 14.2718447,9.84466019 C13.7475728,10.8349515 12,10.8349515 11.4757282,9.84466019 C11.2427184,9.4368932 10.8349515,9.4368932 11.1262136,10.0194175 C11.7669903,11.5339806 13.9223301,11.5339806 14.6796117,10.0194175 Z M6.58252427,6.75728155 C6.93203883,6.58252427 7.33980583,6.99029126 6.99029126,7.2815534 C6,8.09708738 4.60194175,8.38834951 3.26213592,8.38834951 C2.7961165,8.38834951 2.67961165,8.15533981 3.26213592,8.15533981 C4.83495146,7.98058252 5.47572816,7.63106796 6.58252427,6.75728155 Z M3.32038835,10.0194175 C3.08737864,9.49514563 3.4368932,9.37864078 3.66990291,9.84466019 C4.19417476,10.8349515 6,10.8349515 6.52427184,9.84466019 C6.69902913,9.4368932 7.10679612,9.4368932 6.87378641,10.0194175 C6.23300971,11.5339806 4.01941748,11.5339806 3.32038835,10.0194175 Z M8.97087379,1.04854369 C13.3980583,1.04854369 16.9514563,4.60194175 16.9514563,8.97087379 C16.9514563,13.3980583 13.3980583,16.9514563 8.97087379,16.9514563 C4.60194175,16.9514563 1.04854369,13.3980583 1.04854369,8.97087379 C1.04854369,4.60194175 4.60194175,1.04854369 8.97087379,1.04854369 Z" id="Shape"></path>
                </g>
                <line x1="355.75" y1="371.25" x2="355.75" y2="151.25" id="Line-2" stroke="#888888" stroke-width="0.25" stroke-linecap="square" stroke-dasharray="3"></line>
                <line x1="428.75" y1="371.25" x2="428.75" y2="151.25" id="Line-2" stroke="#888888" stroke-width="0.25" stroke-linecap="square" stroke-dasharray="3"></line>
                <line x1="169.5" y1="471" x2="175.5" y2="471" id="Line-22" stroke="#2B2C2D" stroke-linecap="square"></line>
            </g>
        </g>
    </g>
</svg>