<?xml version="1.0" encoding="UTF-8"?>
<svg width="57px" height="52px" viewBox="0 0 57 52" version="1.1" xmlns="http://www.w3.org/2000/svg" xmlns:xlink="http://www.w3.org/1999/xlink">
    <!-- Generator: Sketch 60.1 (88133) - https://sketch.com -->
    <title>Group 7</title>
    <desc>Created with Sketch.</desc>
    <defs>
        <polygon id="path-1" points="0 0 56.8 0 56.8 28 0 28"></polygon>
    </defs>
    <g id="Page-1" stroke="none" stroke-width="1" fill="none" fill-rule="evenodd">
        <g id="4-9.Feature-lists" transform="translate(-124.000000, -207.000000)">
            <g id="Group-7" transform="translate(124.000000, 207.800000)">
                <g id="Group-3" transform="translate(0.000000, 22.400000)">
                    <mask id="mask-2" fill="white">
                        <use xlink:href="#path-1"></use>
                    </mask>
                    <g id="Clip-2"></g>
                    <path d="M31.696874,9.15685797 C32.3995244,9.33219926 33.0241026,9.70706684 33.5105529,10.2149519 C33.5946308,10.2995995 33.7267531,10.3237845 33.8348532,10.2693682 L35.7085877,9.28382925 C35.8467156,9.21732048 35.9307934,9.07221045 35.9307934,8.91500792 C35.9127767,6.49650742 39.2818956,5.63793974 40.3448797,7.89923771 C41.3598192,10.0517032 38.8374842,12.1134748 36.9517385,10.8256233 C36.8196162,10.7470221 36.6694772,10.7349295 36.5253438,10.8014383 L34.6335926,11.7990698 C34.5254925,11.853486 34.4654369,11.9744111 34.4894591,12.0953361 C34.6756315,13.0264588 34.5074758,13.9999052 34.0270311,14.8161491 C33.9609699,14.9189354 33.972981,15.0519529 34.0570589,15.1426467 L35.4803765,16.7086258 C35.5884765,16.8295508 35.7386155,16.8718746 35.8947601,16.8295508 C38.212906,16.1826019 39.9064738,19.2420051 38.0147226,20.8624004 C36.2070492,22.4041945 33.5766141,20.4875328 34.3213035,18.3169286 C34.369348,18.1657723 34.3393202,18.0146161 34.2372256,17.8997373 L32.7958914,16.3216657 C32.7118135,16.2249257 32.5796912,16.2007407 32.4715912,16.2551569 C31.5347239,16.7267645 30.3696453,16.7751345 29.3967447,16.3821282 C29.2826391,16.3337582 29.1505167,16.3700357 29.0724445,16.472822 L27.7752436,18.1718186 C27.6791547,18.2987899 27.661138,18.4499461 27.7211936,18.6011024 C28.6460497,20.6991516 26.1837703,22.8274321 24.2559857,21.4428405 C22.2321122,19.9917402 23.6674409,16.8053658 26.0336314,17.2467421 C26.1897759,17.2769734 26.3339093,17.2225571 26.4360038,17.0895396 L27.7211936,15.4086818 C27.7992659,15.317988 27.7992659,15.1789242 27.7271991,15.0761379 C27.1746877,14.3143103 26.9284597,13.3469101 27.0365598,12.4097411 C27.0485709,12.2888161 26.9825098,12.1739373 26.8684041,12.1255673 L24.8985806,11.2972309 C24.7544472,11.2367684 24.5983026,11.2609534 24.4781914,11.3576934 C22.7005458,12.8027475 20.0220663,10.9586408 20.8508335,8.72757413 C21.7216396,6.38162865 25.1508141,6.94997626 25.3369865,9.36243051 C25.3489976,9.5256793 25.439081,9.65265057 25.58922,9.71915934 L27.5350212,10.5354033 C27.6491269,10.577727 27.7752436,10.5474958 27.8533159,10.4507557 C28.2977273,9.90659313 28.8862721,9.48335554 29.5709059,9.24755174 C29.6910171,9.20522798 29.7690894,9.09639546 29.7630838,8.97547043 L29.6609893,6.82300499 C29.6549837,6.67184871 29.5709059,6.53883118 29.4267725,6.47232242 C27.3008044,5.43841345 27.961416,2.13716027 30.333612,2.034374 C32.7118135,1.93763398 33.6426753,5.1723784 31.6127961,6.38162865 C31.4806738,6.46022991 31.4026016,6.59324744 31.4146127,6.75649622 L31.4866794,8.89686917 C31.492685,9.02384044 31.5767628,9.12662672 31.696874,9.15685797 M19.7337994,22.7125533 C19.7337994,29.7624822 9.00186459,29.7624822 9.00186459,22.7125533 C9.00186459,15.6626243 19.7337994,15.6626243 19.7337994,22.7125533 M50.9386866,22.7125533 C50.9386866,29.7624822 40.2067518,29.7624822 40.2067518,22.7125533 C40.2067518,15.6626243 50.9386866,15.6626243 50.9386866,22.7125533 M4.47367272,24.3631799 C-0.234685938,24.3631799 -1.1295143,19.0908488 1.33276509,16.2370182 C5.51263451,11.3939709 10.605349,6.82300499 18.0642539,3.17106923 C22.0999899,1.19394507 26.5441039,-0.21483147 32.3574855,0.0270185805 C37.2400054,0.232591123 42.1705698,0.359562399 47.0230618,1.49021138 C49.5874358,2.08879026 50.9446922,3.20130049 51.7614483,4.27148696 C57.6949411,12.0227811 58.8059696,19.1150338 52.8364434,24.9012962 C52.5481766,25.1733775 51.8815595,25.3305801 52.0677318,24.6473537 C53.2508271,20.3787003 50.266064,16.0435381 45.575722,16.0435381 C41.0775579,16.0435381 37.8285502,20.227544 39.0777066,24.6473537 C39.1557789,24.9012962 38.9575954,25.1673313 38.6873452,25.1673313 L21.2652171,25.1673313 C20.9889614,25.1673313 20.7907779,24.9073425 20.8628446,24.6473537 C22.0519454,20.3787003 19.0611768,16.0435381 14.3708348,16.0435381 C10.40116,16.0435381 6.68972418,19.6591964 7.71667485,23.8794798 C7.77673045,24.1213298 7.60857478,24.3631799 7.36234684,24.3934111 C6.37743508,24.5082899 5.53065119,24.3631799 4.47367272,24.3631799" id="Fill-1" fill="#E60953" mask="url(#mask-2)"></path>
                </g>
                <path d="M41.702052,11.5645666 L43.052475,9.21789992 C43.1256506,9.09050944 43.072432,8.92959516 42.9460377,8.86254754 C36.1207474,5.33584277 27.3596291,5.33584277 20.5409911,8.86254754 C20.4079445,8.92959516 20.3613782,9.09050944 20.4345538,9.21789992 L21.7849768,11.5645666 C21.8515001,11.6785475 22.0045036,11.7254809 22.1242456,11.6517285 C27.9051201,8.42003325 35.5819087,8.42003325 41.3627832,11.6517285 C41.4825251,11.7254809 41.6288764,11.6785475 41.702052,11.5645666" id="Path" fill="#E60953"></path>
                <path d="M38.9049354,16.7054431 L40.4017096,14.0972907 C40.4682329,13.9833098 40.4349713,13.8223955 40.3152293,13.7553479 C35.286068,10.711386 28.3543404,10.711386 23.3251791,13.7553479 C23.2054372,13.8223955 23.1655232,13.9833098 23.2320465,14.0972907 L24.735473,16.7054431 C24.8086487,16.8328336 24.9749569,16.8730622 25.0946989,16.7859003 C28.9064838,14.0034241 34.7339247,14.0034241 38.5390573,16.7859003 C38.6587992,16.8730622 38.8317598,16.8328336 38.9049354,16.7054431" id="Path" fill="#E60953"></path>
                <path d="M44.6459854,6.40407952 L46.2159353,3.6618319 C46.2891109,3.53444142 46.2425446,3.36682237 46.1028457,3.30647952 C37.2219854,-0.870587152 26.2256844,-0.870587152 17.3448242,3.30647952 C17.2184299,3.36682237 17.1585589,3.53444142 17.2317345,3.6618319 L18.8083367,6.40407952 C18.87486,6.51806047 19.0212112,6.5649938 19.1409532,6.50465094 C26.8576557,2.68293666 36.5966664,2.68293666 44.313369,6.50465094 C44.4331109,6.5649938 44.5794621,6.51806047 44.6459854,6.40407952" id="Path" fill="#E60953"></path>
            </g>
        </g>
    </g>
</svg>