<?xml version="1.0" encoding="UTF-8"?>
<svg width="54px" height="61px" viewBox="0 0 54 61" version="1.1" xmlns="http://www.w3.org/2000/svg" xmlns:xlink="http://www.w3.org/1999/xlink">
    <!-- Generator: Sketch 60.1 (88133) - https://sketch.com -->
    <title>Group 2</title>
    <desc>Created with Sketch.</desc>
    <g id="Page-1" stroke="none" stroke-width="1" fill="none" fill-rule="evenodd">
        <g id="4-9.Feature-lists" transform="translate(-410.000000, -198.000000)">
            <g id="Group-2" transform="translate(410.000000, 198.600000)">
                <rect id="Rectangle" fill="#E60953" x="29.2" y="0" width="24.4" height="38" rx="3.2"></rect>
                <path d="M45.2,14.0801346 C45.2,14.7518549 44.4709746,15.2400673 43.4666215,15.2400673 C42.4622684,15.2400673 41.7332972,14.7518549 41.7332972,14.0801346 C41.7332972,13.4084143 42.4622684,12.9202019 43.4666215,12.9202019 C43.673483,12.9202019 43.8648528,12.9454852 44.0444144,12.9842529 L44.0444144,8.38492103 L38.2666486,9.35161317 L38.2666486,15.2400673 C38.2666486,15.9117876 37.5376774,16.4 36.5333243,16.4 C35.5289712,16.4 34.8,15.9117876 34.8,15.2400673 C34.8,14.568347 35.5289712,14.0801346 36.5333243,14.0801346 C36.7401857,14.0801346 36.9315556,14.1054179 37.1111171,14.1441856 L37.1111171,6.5404361 C37.1111171,6.2572631 37.3153786,6.01481525 37.5941188,5.96838097 L44.527416,4.80844827 C44.6955485,4.77897827 44.8664976,4.8276962 44.9957386,4.93758342 C45.1255212,5.04861246 45.2,5.2094469 45.2,5.38050339 L45.2,14.0801346 L45.2,14.0801346 Z" id="Shape" fill="#FFFFFF" fill-rule="nonzero"></path>
                <line x1="33.4" y1="21.4" x2="49.1138748" y2="21.4" id="Line" stroke="#FFFFFF" stroke-width="0.8" stroke-linecap="square"></line>
                <line x1="33.4" y1="25.4" x2="49.1138748" y2="25.4" id="Line" stroke="#FFFFFF" stroke-width="0.8" stroke-linecap="square"></line>
                <line x1="33.4" y1="29.4" x2="49.1138748" y2="29.4" id="Line" stroke="#FFFFFF" stroke-width="0.8" stroke-linecap="square"></line>
                <line x1="33.4" y1="33.4" x2="49.1138748" y2="33.4" id="Line" stroke="#FFFFFF" stroke-width="0.8" stroke-linecap="square"></line>
                <rect id="Rectangle" fill="#E60953" x="2.71782596e-13" y="21.6" width="24.4" height="38" rx="3.2"></rect>
                <path d="M16,35.6801346 C16,36.3518549 15.2709746,36.8400673 14.2666215,36.8400673 C13.2622684,36.8400673 12.5332972,36.3518549 12.5332972,35.6801346 C12.5332972,35.0084143 13.2622684,34.5202019 14.2666215,34.5202019 C14.473483,34.5202019 14.6648528,34.5454852 14.8444144,34.5842529 L14.8444144,29.984921 L9.06664861,30.9516132 L9.06664861,36.8400673 C9.06664861,37.5117876 8.33767741,38 7.33332431,38 C6.3289712,38 5.6,37.5117876 5.6,36.8400673 C5.6,36.168347 6.3289712,35.6801346 7.33332431,35.6801346 C7.54018573,35.6801346 7.73155556,35.7054179 7.91111713,35.7441856 L7.91111713,28.1404361 C7.91111713,27.8572631 8.11537857,27.6148153 8.39411878,27.568381 L15.327416,26.4084483 C15.4955485,26.3789783 15.6664976,26.4276962 15.7957386,26.5375834 C15.9255212,26.6486125 16,26.8094469 16,26.9805034 L16,35.6801346 L16,35.6801346 Z" id="Shape" fill="#FFFFFF" fill-rule="nonzero"></path>
                <line x1="4.2" y1="43" x2="19.9138748" y2="43" id="Line" stroke="#FFFFFF" stroke-width="0.8" stroke-linecap="square"></line>
                <line x1="4.2" y1="47" x2="19.9138748" y2="47" id="Line" stroke="#FFFFFF" stroke-width="0.8" stroke-linecap="square"></line>
                <line x1="4.2" y1="51" x2="19.9138748" y2="51" id="Line" stroke="#FFFFFF" stroke-width="0.8" stroke-linecap="square"></line>
                <line x1="4.2" y1="55" x2="19.9138748" y2="55" id="Line" stroke="#FFFFFF" stroke-width="0.8" stroke-linecap="square"></line>
            </g>
        </g>
    </g>
</svg>