<?xml version="1.0" encoding="UTF-8"?>
<svg width="41px" height="41px" viewBox="0 0 41 41" version="1.1" xmlns="http://www.w3.org/2000/svg" xmlns:xlink="http://www.w3.org/1999/xlink">
    <!-- Generator: Sketch 60.1 (88133) - https://sketch.com -->
    <title>Group 3</title>
    <desc>Created with Sketch.</desc>
    <defs>
        <polygon id="path-1" points="0.6 0 40.6 0 40.6 44.8 0.6 44.8"></polygon>
    </defs>
    <g id="Page-1" stroke="none" stroke-width="1" fill="none" fill-rule="evenodd">
        <g id="4-9.Feature-lists" transform="translate(-133.000000, -345.000000)">
            <g id="Group-3" transform="translate(133.000000, 345.800000)">
                <mask id="mask-2" fill="white">
                    <use xlink:href="#path-1"></use>
                </mask>
                <g id="Clip-2"></g>
                <path d="M34.0189392,0 C37.651298,0 40.6,2.93331289 40.6,6.54671471 C40.6,8.5045465 39.7989475,9.72046308 38.7009531,11.1974239 L34.3296923,17.091528 C34.1708629,17.3044852 33.8601098,17.3044852 33.708186,17.091528 L29.2540578,11.0943801 C28.1698746,9.62428889 27.4309727,8.4564594 27.4309727,6.54671471 C27.4309727,2.93331289 30.3796747,0 34.0189392,0 M30.0689216,15.6214368 C30.4901647,16.2328299 30.6489941,17.0571801 29.212624,16.7892663 C27.1064083,16.3976999 25.4076245,16.2122211 23.7433689,16.1778732 C22.2931876,16.1503948 20.7808557,16.0885686 19.3997306,16.8167446 C18.0669449,17.5105727 16.8377437,18.3898796 15.6361649,19.2966649 C14.3171905,20.2996243 14.8005842,21.2476271 16.2024261,21.4399755 C20.0419538,21.9689335 23.9298207,22.0376294 27.7900652,22.3192824 C30.6904278,22.5322395 31.5329141,23.4390248 30.7387672,24.9503335 C28.6463628,28.9415625 26.7473158,33.3037491 23.3221257,36.7934984 C20.3181788,39.8367247 17.4799668,39.500115 15.0146586,39.5688109 C10.9955847,39.6855938 10.7815104,38.7032431 12.1833523,37.1850648 C14.786773,34.3616653 17.1761193,31.3527869 19.8485963,28.6118224 C21.0225525,27.409645 21.0916088,26.6539906 18.1429068,26.4616423 C13.9926261,26.1937284 9.81472283,26.2692939 5.69206458,25.7746837 C0.28496004,25.1495515 -0.757789366,23.3085026 3.19913388,20.6637123 C6.09259084,18.7333589 8.8203128,16.5557004 11.7413923,14.673434 C13.4470817,13.5743004 15.2770724,12.7018631 18.4329431,12.7705589 C20.8775344,12.8255156 23.3221257,12.935429 25.7598114,12.9148202 C28.052479,12.901081 28.9225878,13.9589972 30.0689216,15.6214368" id="Fill-1" fill="#E60953" mask="url(#mask-2)"></path>
            </g>
        </g>
    </g>
</svg>