<?xml version="1.0" encoding="UTF-8"?>
<svg width="280px" height="108px" viewBox="0 0 280 108" version="1.1" xmlns="http://www.w3.org/2000/svg" xmlns:xlink="http://www.w3.org/1999/xlink">
    <!-- Generator: Sketch 59 (86127) - https://sketch.com -->
    <project-title>Group 24</project-title>
    <desc>Created with Sketch.</desc>
    <g id="Page-1" stroke="none" stroke-width="1" fill="none" fill-rule="evenodd">
        <g id="8.Personal-Branding-logo-final" transform="translate(-256.000000, -145.000000)">
            <g id="Group-24" transform="translate(256.000000, 145.000000)">
                <path d="M39.776179,97.9399142 C46.6078487,97.9399142 56.2417705,94.0966972 56.4669755,75.3075625 C56.4952947,72.9397477 56.4952947,66.549557 56.4669755,63.8456943 C47.7741475,64.2918455 35.5781303,67.6432673 29.4046095,77.3294346 C25.7697495,83.0324789 27.1909921,88.1340004 28.5806557,90.7036704 C30.9567713,95.0893733 35.5653838,97.9399142 39.776179,97.9399142 Z" id="Fill-5" fill="#FE4F6C"></path>
                <path d="M65.2403995,74.2946675 C65.1780903,86.4023768 62.2661755,94.090097 58.2285419,98.9345656 C54.5266854,103.664085 49.1719268,106.759947 42.6612672,107.371819 C43.6346747,107.434141 45.5147438,107.553648 46.5040748,107.553648 C68.2167404,107.553648 85.4621925,91.7918384 89.2996506,72.1548164 C88.4432458,71.597384 79.9758237,64.9768902 65.250092,63.6909871 C65.2438611,67.1733817 65.252169,71.922983 65.2403995,74.2946675 Z" id="Fill-7" fill="#FE4F6C"></path>
                <path d="M64.5922747,56.0698731 C73.2977718,56.8262481 78.8733502,58.5923742 82.5601176,59.9229218 C82.5614915,59.9235942 82.5628654,59.9235942 82.5642392,59.9242665 C82.8438208,60.0177208 83.28071,60.1824425 83.8226998,60.3982615 C84.3433947,60.6033232 84.8022657,60.7956105 85.1979389,60.9663832 C86.5910383,61.5593812 88.1659492,62.2684565 89.8283262,63.1135795 C89.8331347,62.8433015 89.8489342,62.5763852 89.8489342,62.3047625 C89.8489342,51.5035167 86.294738,41.574622 79.8254415,33.8757249 C75.7109098,28.9791559 70.5303875,24.9751519 64.5922747,22.2009289 L64.5922747,56.0698731 Z" id="Fill-9" fill="#FE4F6C"></path>
                <path d="M56.5222873,18.5818567 C53.0414769,17.7143193 48.7593069,17.4248927 45.0091155,17.4248927 C20.1510553,17.4248927 -2.27373675e-13,37.5615722 -2.27373675e-13,62.4018986 C-2.27373675e-13,81.7112487 11.0592211,98.5246098 30.1763306,105.249499 C23.4527197,101.469953 18.0048738,93.5828121 18.0048738,85.324511 C18.0048738,82.9815469 18.3772332,80.727858 19.0544363,78.6091042 C19.6791272,76.3901713 20.6195735,74.2148539 22.0060326,72.1778789 C29.7662485,60.7772254 44.4560689,56.4734065 56.4806867,55.8798283 C56.4834146,45.8823636 56.4972815,33.4497064 56.5222873,18.5818567 Z" id="Fill-11" fill="#FE4F6C"></path>
                <path d="M60.0858369,8.41201717 C57.7635875,8.41201717 55.8798283,6.5289305 55.8798283,4.20600858 C55.8798283,1.88308667 57.7635875,0 60.0858369,0 C62.4087588,0 64.2918455,1.88308667 64.2918455,4.20600858 C64.2918455,6.5289305 62.4087588,8.41201717 60.0858369,8.41201717 Z" id="Fill-33" fill="#FE4F6C"></path>
                <path d="M118.026431,44.6179534 C118.026431,47.4711868 116.702163,48.5775426 114.62117,48.5775426 C112.350996,48.5775426 110.837547,47.296499 110.774487,43.7445146 L98.5407725,43.7445146 C98.5407725,53.759946 105.351294,58.8841202 115.125653,58.8841202 C124.45859,58.8841202 130.386266,54.0510923 130.386266,44.6179534 L130.386266,17.4248927 L118.026431,17.4248927 L118.026431,44.6179534 Z M166.168642,58.8841202 L178.454936,58.8841202 L163.260293,17.4248927 L149.846272,17.4248927 L134.592275,58.8841202 L146.819214,58.8841202 L149.074669,52.1212675 L163.913187,52.1212675 L166.168642,58.8841202 Z M160.429185,43.2618026 L152.017167,43.2618026 L156.195322,29.4420601 L160.429185,43.2618026 Z M182.660944,58.8841202 L194.678112,58.8841202 L194.678112,17.4248927 L182.660944,17.4248927 L182.660944,58.8841202 Z M198.88412,58.8841202 L210.761112,58.8841202 L210.761112,35.8316136 L218.881096,58.8841202 L228.818986,58.8841202 L236.878373,36.0080358 L236.878373,58.8841202 L248.755365,58.8841202 L248.755365,17.4248927 L234.454498,17.4248927 L223.971235,44.3586887 L213.245584,17.4248927 L198.88412,17.4248927 L198.88412,58.8841202 Z M279.399142,17.4248927 L252.961373,17.4248927 L252.961373,58.8841202 L279.399142,58.8841202 L279.399142,49.651356 L264.450958,49.651356 L264.450958,42.1828144 L279.511803,42.1828144 L279.511803,33.4205095 L264.450958,33.4205095 L264.450958,26.6576568 L279.399142,26.6576568 L279.399142,17.4248927 Z M113.421771,94.1898761 L113.421771,107.553648 L125.71986,107.553648 L125.71986,94.1898761 L141.201717,65.4935622 L127.405384,65.4935622 L119.664456,81.7209996 L111.923527,65.4935622 L97.9399142,65.4935622 L113.421771,94.1898761 Z M234.935622,86.494518 C234.935622,74.1615467 225.76069,65.4935622 214.23468,65.4935622 C202.766014,65.4935622 193.476395,74.1615467 193.476395,86.494518 C193.476395,98.8274892 202.766014,107.553648 214.23468,107.553648 C225.703346,107.553648 234.935622,98.8274892 234.935622,86.494518 Z M205.493562,86.550236 C205.493562,80.6381891 208.720394,76.9098712 214.206009,76.9098712 C219.637842,76.9098712 222.918455,80.6381891 222.918455,86.550236 C222.918455,92.3557595 219.637842,96.1373391 214.206009,96.1373391 C208.720394,96.1373391 205.493562,92.3557595 205.493562,86.550236 Z M188.06867,86.494518 C188.06867,74.1615467 178.893737,65.4935622 167.367727,65.4935622 C155.899061,65.4935622 146.609442,74.1615467 146.609442,86.494518 C146.609442,98.8274892 155.899061,107.553648 167.367727,107.553648 C178.836393,107.553648 188.06867,98.8274892 188.06867,86.494518 Z M158.626609,86.550236 C158.626609,80.6381891 161.853441,76.9098712 167.339056,76.9098712 C172.77089,76.9098712 176.051502,80.6381891 176.051502,86.550236 C176.051502,92.3557595 172.77089,96.1373391 167.339056,96.1373391 C161.853441,96.1373391 158.626609,92.3557595 158.626609,86.550236 Z M267.676422,65.4935622 L279.399142,65.4935622 L279.399142,107.553648 L267.676422,107.553648 L252.066067,84.0477278 L252.066067,107.553648 L240.343348,107.553648 L240.343348,65.4935622 L252.066067,65.4935622 L267.676422,89.297781 L267.676422,65.4935622 Z" id="JAIMEYOON" fill="#292841" fill-rule="nonzero"></path>
            </g>
        </g>
    </g>
</svg>