<?xml version="1.0" encoding="UTF-8"?>
<svg width="140px" height="54px" viewBox="0 0 140 54" version="1.1" xmlns="http://www.w3.org/2000/svg" xmlns:xlink="http://www.w3.org/1999/xlink">
    <!-- Generator: Sketch 60.1 (88133) - https://sketch.com -->
    <title>Group 24</title>
    <desc>Created with Sketch.</desc>
    <g id="Page-1" stroke="none" stroke-width="1" fill="none" fill-rule="evenodd">
        <g id="10.Personal-Branding-logo-clearspace" transform="translate(-205.000000, -178.000000)">
            <g id="Group-24" transform="translate(205.000000, 178.000000)">
                <path d="M19.8880895,48.9699571 C23.3039243,48.9699571 28.1208852,47.0483486 28.2334878,37.6537812 C28.2476474,36.4698739 28.2476474,33.2747785 28.2334878,31.9228472 C23.8870737,32.1459227 17.7890652,33.8216337 14.7023048,38.6647173 C12.8848747,41.5162394 13.5954961,44.0670002 14.2903278,45.3518352 C15.4783857,47.5446866 17.7826919,48.9699571 19.8880895,48.9699571 Z" id="Fill-5" fill="#FE4F6C"></path>
                <path d="M32.6201997,37.1473338 C32.5890452,43.2011884 31.1330878,47.0450485 29.114271,49.4672828 C27.2633427,51.8320427 24.5859634,53.3799737 21.3306336,53.6859094 C21.8173374,53.7170703 22.7573719,53.776824 23.2520374,53.776824 C34.1083702,53.776824 42.7310963,45.8959192 44.6498253,36.0774082 C44.2216229,35.798692 39.9879119,32.4884451 32.625046,31.8454936 C32.6219306,33.5866909 32.6260845,35.9614915 32.6201997,37.1473338 Z" id="Fill-7" fill="#FE4F6C"></path>
                <path d="M32.2961373,28.0349366 C36.6488859,28.4131241 39.4366751,29.2961871 41.2800588,29.9614609 C41.2807457,29.9617971 41.2814327,29.9617971 41.2821196,29.9621333 C41.4219104,30.0088604 41.640355,30.0912213 41.9113499,30.1991308 C42.1716974,30.3016616 42.4011329,30.3978053 42.5989695,30.4831916 C43.2955191,30.7796906 44.0829746,31.1342283 44.9141631,31.5567898 C44.9165674,31.4216508 44.9244671,31.2881926 44.9244671,31.1523813 C44.9244671,25.7517583 43.147369,20.787311 39.9127208,16.9378625 C37.8554549,14.4895779 35.2651937,12.4875759 32.2961373,11.1004645 L32.2961373,28.0349366 Z" id="Fill-9" fill="#FE4F6C"></path>
                <path d="M28.2611436,9.29092834 C26.5207384,8.85715967 24.3796534,8.71244635 22.5045578,8.71244635 C10.0755276,8.71244635 -2.27373675e-13,18.7807861 -2.27373675e-13,31.2009493 C-2.27373675e-13,40.8556243 5.52961054,49.2623049 15.0881653,52.6247495 C11.7263598,50.7349765 9.00243689,46.791406 9.00243689,42.6622555 C9.00243689,41.4907734 9.1886166,40.363929 9.52721816,39.3045521 C9.83956361,38.1950857 10.3097867,37.1074269 11.0030163,36.0889395 C14.8831242,30.3886127 22.2280344,28.2367032 28.2403433,27.9399142 C28.2417073,22.9411818 28.2486407,16.7248532 28.2611436,9.29092834 Z" id="Fill-11" fill="#FE4F6C"></path>
                <path d="M30.0429185,4.20600858 C28.8817938,4.20600858 27.9399142,3.26446525 27.9399142,2.10300429 C27.9399142,0.941543335 28.8817938,0 30.0429185,0 C31.2043794,0 32.1459227,0.941543335 32.1459227,2.10300429 C32.1459227,3.26446525 31.2043794,4.20600858 30.0429185,4.20600858 Z" id="Fill-33" fill="#FE4F6C"></path>
                <path d="M59.0132155,22.3089767 C59.0132155,23.7355934 58.3510815,24.2887713 57.3105851,24.2887713 C56.1754982,24.2887713 55.4187736,23.6482495 55.3872434,21.8722573 L49.2703863,21.8722573 C49.2703863,26.879973 52.675647,29.4420601 57.5628267,29.4420601 C62.229295,29.4420601 65.193133,27.0255461 65.193133,22.3089767 L65.193133,8.71244635 L59.0132155,8.71244635 L59.0132155,22.3089767 Z M83.0843211,29.4420601 L89.2274678,29.4420601 L81.6301463,8.71244635 L74.9231359,8.71244635 L67.2961373,29.4420601 L73.409607,29.4420601 L74.5373344,26.0606337 L81.9565937,26.0606337 L83.0843211,29.4420601 Z M80.2145923,21.6309013 L76.0085837,21.6309013 L78.0976608,14.72103 L80.2145923,21.6309013 Z M91.3304721,29.4420601 L97.3390558,29.4420601 L97.3390558,8.71244635 L91.3304721,8.71244635 L91.3304721,29.4420601 Z M99.4420601,29.4420601 L105.380556,29.4420601 L105.380556,17.9158068 L109.440548,29.4420601 L114.409493,29.4420601 L118.439187,18.0040179 L118.439187,29.4420601 L124.377682,29.4420601 L124.377682,8.71244635 L117.227249,8.71244635 L111.985617,22.1793444 L106.622792,8.71244635 L99.4420601,8.71244635 L99.4420601,29.4420601 Z M139.699571,8.71244635 L126.480687,8.71244635 L126.480687,29.4420601 L139.699571,29.4420601 L139.699571,24.825678 L132.225479,24.825678 L132.225479,21.0914072 L139.755901,21.0914072 L139.755901,16.7102548 L132.225479,16.7102548 L132.225479,13.3288284 L139.699571,13.3288284 L139.699571,8.71244635 Z M56.7108857,47.0949381 L56.7108857,53.776824 L62.8599298,53.776824 L62.8599298,47.0949381 L70.6008584,32.7467811 L63.7026922,32.7467811 L59.8322279,40.8604998 L55.9617636,32.7467811 L48.9699571,32.7467811 L56.7108857,47.0949381 Z M117.467811,43.247259 C117.467811,37.0807734 112.880345,32.7467811 107.11734,32.7467811 C101.383007,32.7467811 96.7381974,37.0807734 96.7381974,43.247259 C96.7381974,49.4137446 101.383007,53.776824 107.11734,53.776824 C112.851673,53.776824 117.467811,49.4137446 117.467811,43.247259 Z M102.746781,43.275118 C102.746781,40.3190946 104.360197,38.4549356 107.103004,38.4549356 C109.818921,38.4549356 111.459227,40.3190946 111.459227,43.275118 C111.459227,46.1778798 109.818921,48.0686695 107.103004,48.0686695 C104.360197,48.0686695 102.746781,46.1778798 102.746781,43.275118 Z M94.0343348,43.247259 C94.0343348,37.0807734 89.4468684,32.7467811 83.6838637,32.7467811 C77.9495307,32.7467811 73.304721,37.0807734 73.304721,43.247259 C73.304721,49.4137446 77.9495307,53.776824 83.6838637,53.776824 C89.4181967,53.776824 94.0343348,49.4137446 94.0343348,43.247259 Z M79.3133047,43.275118 C79.3133047,40.3190946 80.9267207,38.4549356 83.6695279,38.4549356 C86.3854448,38.4549356 88.0257511,40.3190946 88.0257511,43.275118 C88.0257511,46.1778798 86.3854448,48.0686695 83.6695279,48.0686695 C80.9267207,48.0686695 79.3133047,46.1778798 79.3133047,43.275118 Z M133.838211,32.7467811 L139.699571,32.7467811 L139.699571,53.776824 L133.838211,53.776824 L126.033033,42.0238639 L126.033033,53.776824 L120.171674,53.776824 L120.171674,32.7467811 L126.033033,32.7467811 L133.838211,44.6488905 L133.838211,32.7467811 Z" id="JAIMEYOON" fill="#292841" fill-rule="nonzero"></path>
            </g>
        </g>
    </g>
</svg>