<?xml version="1.0" encoding="UTF-8"?>
<svg width="45px" height="54px" viewBox="0 0 45 54" version="1.1" xmlns="http://www.w3.org/2000/svg" xmlns:xlink="http://www.w3.org/1999/xlink">
    <!-- Generator: Sketch 59 (86127) - https://sketch.com -->
    <title>Group</title>
    <desc>Created with Sketch.</desc>
    <g id="Page-1" stroke="none" stroke-width="1" fill="none" fill-rule="evenodd">
        <g id="8.Personal-Branding-logo-final" transform="translate(-326.000000, -292.000000)" fill="#FE4F6C">
            <g id="Group-24" transform="translate(326.000000, 292.000000)">
                <g id="Group" transform="translate(-0.000000, 0.000000)">
                    <path d="M19.8880895,48.9699571 C23.3039243,48.9699571 28.1208852,47.0483486 28.2334878,37.6537812 C28.2476474,36.4698739 28.2476474,33.2747785 28.2334878,31.9228472 C23.8870737,32.1459227 17.7890652,33.8216337 14.7023048,38.6647173 C12.8848747,41.5162394 13.5954961,44.0670002 14.2903278,45.3518352 C15.4783857,47.5446866 17.7826919,48.9699571 19.8880895,48.9699571 Z" id="Fill-5"></path>
                    <path d="M32.6201997,37.1473338 C32.5890452,43.2011884 31.1330878,47.0450485 29.114271,49.4672828 C27.2633427,51.8320427 24.5859634,53.3799737 21.3306336,53.6859094 C21.8173374,53.7170703 22.7573719,53.776824 23.2520374,53.776824 C34.1083702,53.776824 42.7310963,45.8959192 44.6498253,36.0774082 C44.2216229,35.798692 39.9879119,32.4884451 32.625046,31.8454936 C32.6219306,33.5866909 32.6260845,35.9614915 32.6201997,37.1473338 Z" id="Fill-7"></path>
                    <path d="M32.2961373,28.0349366 C36.6488859,28.4131241 39.4366751,29.2961871 41.2800588,29.9614609 C41.2807457,29.9617971 41.2814327,29.9617971 41.2821196,29.9621333 C41.4219104,30.0088604 41.640355,30.0912213 41.9113499,30.1991308 C42.1716974,30.3016616 42.4011329,30.3978053 42.5989695,30.4831916 C43.2955191,30.7796906 44.0829746,31.1342283 44.9141631,31.5567898 C44.9165674,31.4216508 44.9244671,31.2881926 44.9244671,31.1523813 C44.9244671,25.7517583 43.147369,20.787311 39.9127208,16.9378625 C37.8554549,14.4895779 35.2651937,12.4875759 32.2961373,11.1004645 L32.2961373,28.0349366 Z" id="Fill-9"></path>
                    <path d="M28.2611436,9.29092834 C26.5207384,8.85715967 24.3796534,8.71244635 22.5045578,8.71244635 C10.0755276,8.71244635 -2.66453526e-14,18.7807861 -2.66453526e-14,31.2009493 C-2.66453526e-14,40.8556243 5.52961054,49.2623049 15.0881653,52.6247495 C11.7263598,50.7349765 9.00243689,46.791406 9.00243689,42.6622555 C9.00243689,41.4907734 9.1886166,40.363929 9.52721816,39.3045521 C9.83956361,38.1950857 10.3097867,37.1074269 11.0030163,36.0889395 C14.8831242,30.3886127 22.2280344,28.2367032 28.2403433,27.9399142 C28.2417073,22.9411818 28.2486407,16.7248532 28.2611436,9.29092834 Z" id="Fill-11"></path>
                    <path d="M30.0429185,4.20600858 C28.8817938,4.20600858 27.9399142,3.26446525 27.9399142,2.10300429 C27.9399142,0.941543335 28.8817938,0 30.0429185,0 C31.2043794,0 32.1459227,0.941543335 32.1459227,2.10300429 C32.1459227,3.26446525 31.2043794,4.20600858 30.0429185,4.20600858 Z" id="Fill-33"></path>
                </g>
            </g>
        </g>
    </g>
</svg>